<svg width="32" height="32" viewBox="0 0 32 32" fill="none" xmlns="http://www.w3.org/2000/svg">
<g id="SVG">
<path id="Vector" opacity="0.1" d="M16.0012 30.8925C24.5104 30.8925 31.4086 23.9943 31.4086 15.485C31.4086 6.97577 24.5104 0.0776367 16.0012 0.0776367C7.49188 0.0776367 0.59375 6.97577 0.59375 15.485C0.59375 23.9943 7.49188 30.8925 16.0012 30.8925Z" fill="white"/>
<g id="Vector_2">
<path d="M9.4159 14.7832C9.08862 14.784 8.76829 14.8777 8.49198 15.0531C8.21565 15.2284 7.99463 15.4784 7.85448 15.7742C7.71432 16.07 7.66077 16.3993 7.7 16.7242C7.73924 17.0492 7.86967 17.3563 8.0762 17.6102L12.4789 23.0034C12.6358 23.1984 12.8371 23.3531 13.0658 23.4546C13.2945 23.5561 13.5443 23.6016 13.7941 23.5872C14.3285 23.5586 14.811 23.2727 15.1185 22.8027L24.264 8.07386C24.2656 8.07142 24.2671 8.06898 24.2688 8.06657C24.3546 7.93481 24.3267 7.67371 24.1497 7.50968C24.101 7.46464 24.0436 7.43003 23.981 7.40799C23.9186 7.38596 23.8522 7.37695 23.7859 7.38153C23.7198 7.38612 23.6553 7.40421 23.5964 7.43467C23.5375 7.46513 23.4855 7.50732 23.4435 7.55866C23.4402 7.56269 23.4369 7.56666 23.4333 7.57058L14.21 17.9916C14.1749 18.0312 14.1324 18.0636 14.0846 18.0866C14.0369 18.1097 13.9852 18.1229 13.9323 18.1258C13.8794 18.1286 13.8265 18.1211 13.7766 18.1033C13.7267 18.0855 13.6808 18.058 13.6417 18.0223L10.5806 15.2368C10.2627 14.9453 9.84718 14.7835 9.4159 14.7832Z" fill="white"/>
<path d="M9.4159 14.7832C9.08862 14.784 8.76829 14.8777 8.49198 15.0531C8.21565 15.2284 7.99463 15.4784 7.85448 15.7742C7.71432 16.07 7.66077 16.3993 7.7 16.7242C7.73924 17.0492 7.86967 17.3563 8.0762 17.6102L12.4789 23.0034C12.6358 23.1984 12.8371 23.3531 13.0658 23.4546C13.2945 23.5561 13.5443 23.6016 13.7941 23.5872C14.3285 23.5586 14.811 23.2727 15.1185 22.8027L24.264 8.07386C24.2656 8.07142 24.2671 8.06898 24.2688 8.06657C24.3546 7.93481 24.3267 7.67371 24.1497 7.50968C24.101 7.46464 24.0436 7.43003 23.981 7.40799C23.9186 7.38596 23.8522 7.37695 23.7859 7.38153C23.7198 7.38612 23.6553 7.40421 23.5964 7.43467C23.5375 7.46513 23.4855 7.50732 23.4435 7.55866C23.4402 7.56269 23.4369 7.56666 23.4333 7.57058L14.21 17.9916C14.1749 18.0312 14.1324 18.0636 14.0846 18.0866C14.0369 18.1097 13.9852 18.1229 13.9323 18.1258C13.8794 18.1286 13.8265 18.1211 13.7766 18.1033C13.7267 18.0855 13.6808 18.058 13.6417 18.0223L10.5806 15.2368C10.2627 14.9453 9.84718 14.7835 9.4159 14.7832Z" fill="white"/>
</g>
</g>
</svg>
