<?xml version="1.0" encoding="UTF-8"?>
<svg xmlns="http://www.w3.org/2000/svg" version="1.1" viewBox="0 0 58.72 36.66">
  <!-- Generator: Adobe Illustrator 28.6.0, SVG Export Plug-In . SVG Version: 1.2.0 Build 709)  -->
  <g>
    <g id="Layer_1">
      <g>
        <path d="M28.09,3.12v11.96h-5.25v-2.77c-3.68,2.03-7.28,4.01-10.96,6.04,3.67,2.02,7.26,4,10.93,6.02v-2.76h5.28v11.94c-.15-.07-.26-.11-.37-.17-7.85-4.37-15.69-8.74-23.54-13.1-.65-.36-1.23-.79-1.34-1.6-.12-.82.14-1.49.84-1.92.93-.57,1.88-1.1,2.83-1.63,7.03-3.92,14.06-7.83,21.09-11.75.14-.08.28-.14.49-.25Z"/>
        <path d="M35.88,12.3v2.76h-5.25V3.14c.18.09.33.16.47.23,7.72,4.3,15.45,8.6,23.17,12.9.29.16.58.33.84.53,1.09.84,1.07,2.38-.08,3.13-.87.57-1.8,1.06-2.71,1.57-7.09,3.94-14.18,7.89-21.27,11.83-.12.07-.25.12-.42.21v-11.94h5.24v2.77c3.68-2.03,7.28-4.01,10.96-6.04-3.67-2.02-7.27-4-10.95-6.04Z"/>
      </g>
    </g>
  </g>
</svg>