<?xml version="1.0" encoding="UTF-8"?>
<svg xmlns="http://www.w3.org/2000/svg" version="1.1" viewBox="0 0 120 60">
  <!-- Generator: Adobe Illustrator 28.6.0, SVG Export Plug-In . SVG Version: 1.2.0 Build 709)  -->
  <g>
    <g id="Layer_1">
      <g>
        <path d="M71.01,51.49c-2.1,0-4.21,0-6.31,0-.91,0-1.52-.44-1.64-1.24-.05-.32-.02-.67.06-.98.88-3.45,1.78-6.9,2.66-10.35.31-1.23,1.61-2.22,2.85-2.21,4.16.04,8.31.02,12.47.02,1.22,0,1.93.88,1.63,2.06-.9,3.54-1.82,7.08-2.74,10.62-.28,1.09-1.41,2.13-2.76,2.1-2.07-.04-4.15-.01-6.22-.01ZM77.87,41.15c-.09,0-.13-.02-.17-.02-2.67,0-5.35,0-8.02,0-.24,0-.26.14-.31.3-.33,1.3-.67,2.61-1,3.91-.15.57-.29,1.14-.44,1.72.09.01.15.02.21.02,2.65,0,5.31,0,7.96,0,.2,0,.27-.07.31-.25.2-.79.41-1.58.61-2.38.28-1.09.56-2.18.85-3.31Z"/>
        <path d="M14.56,51.49c.22-.86.43-1.67.64-2.49.07-.27.15-.54.19-.82.17-1.05-.51-1.88-1.58-1.88-2.03-.01-4.07,0-6.1,0-.22,0-.27.1-.32.28-.39,1.54-.79,3.07-1.18,4.61-.03.1-.06.2-.08.29H1.88c.12-.46.23-.89.34-1.31.52-2.01,1.05-4.01,1.54-6.02.27-1.12,1.43-2.28,2.91-2.26,3.43.05,6.86.01,10.3.02.27,0,.39-.08.44-.34.05-.26.14-.52.22-.82H4.83c0-.12,0-.2.02-.27.26-1.16.52-2.32.78-3.49.04-.2.12-.27.32-.27,4.87,0,9.75,0,14.62,0,1,0,1.71.8,1.52,1.8-.18.97-.44,1.92-.7,2.86-.14.49-.31.99-.55,1.44-.14.27-.41.49-.64.71-.46.43-.51.74-.19,1.28.24.4.27.83.17,1.26-.43,1.74-.88,3.47-1.34,5.21-.02.08-.12.19-.18.19-1.35.01-2.69,0-4.1,0Z"/>
        <path d="M57.2,8.5v7.84h-3.44v-1.82c-2.41,1.33-4.77,2.63-7.19,3.96,2.4,1.32,4.76,2.62,7.16,3.95v-1.81h3.46v7.83c-.1-.04-.17-.07-.24-.11-5.14-2.86-10.29-5.73-15.43-8.59-.43-.24-.81-.51-.88-1.05-.08-.54.1-.97.55-1.26.61-.38,1.23-.72,1.86-1.07,4.61-2.57,9.22-5.14,13.82-7.7.09-.05.18-.09.32-.17Z"/>
        <path d="M62.31,14.52v1.81h-3.44v-7.82c.12.06.22.1.31.15,5.06,2.82,10.13,5.64,15.19,8.46.19.11.38.22.55.35.72.55.7,1.56-.05,2.05-.57.37-1.18.69-1.78,1.03-4.65,2.59-9.3,5.17-13.94,7.75-.08.04-.16.08-.27.14v-7.83h3.44v1.82c2.41-1.33,4.77-2.63,7.18-3.96-2.41-1.33-4.76-2.62-7.18-3.96Z"/>
        <path d="M63.56,36.73c-.07.12-.11.21-.16.29-2.65,4.33-5.29,8.67-7.95,13-.59.96-1.43,1.49-2.6,1.47-1.08-.02-2.16,0-3.24,0-1.03,0-1.57-.5-1.67-1.52-.42-4.33-.84-8.66-1.25-12.99,0-.07,0-.14,0-.23h4.49c.04.41.09.83.13,1.25.28,2.85.55,5.69.84,8.54.01.15.14.39.24.4.16.02.36-.08.52-.17.08-.04.12-.17.17-.25,1.94-3.17,3.89-6.34,5.83-9.52.12-.19.24-.27.46-.27,1.3.01,2.59,0,3.89,0,.09,0,.18,0,.31.02Z"/>
        <path d="M101.08,47.08c-.23.87-.44,1.68-.64,2.49-.14.53-.29,1.06-.4,1.6-.06.25-.17.32-.42.32-3.08,0-6.16,0-9.24,0-1.7,0-3.4-.04-5.1.01-1.33.04-1.99-1-1.7-2.16,1.06-4.12,2.12-8.25,3.19-12.37.03-.1.15-.24.23-.25,1.34-.02,2.67-.01,4.05-.01-.03.13-.05.24-.07.34-.72,2.82-1.45,5.64-2.17,8.46-.04.17-.08.35-.08.52,0,.55.35.95.88,1.02.14.02.29.02.43.02,3.54,0,7.07,0,10.61,0h.42Z"/>
        <path d="M100.08,41.1c.08-.31.15-.56.21-.82.29-1.1.58-2.2.85-3.31.05-.2.14-.26.34-.26,5.45,0,10.91,0,16.36,0,.08,0,.16.01.27.02-.18.68-.35,1.34-.52,2-.18.69-.37,1.38-.53,2.08-.05.23-.15.29-.38.29-3.14,0-6.28,0-9.43,0-2.27,0-4.54,0-6.81,0h-.38Z"/>
        <path d="M25.1,40.87c.29-1.12.56-2.2.85-3.28.08-.29.09-.67.28-.82.18-.14.56-.05.84-.05,5.2,0,10.41,0,15.61,0h.4c-.15.6-.29,1.15-.43,1.69-.19.73-.38,1.46-.56,2.2-.05.2-.12.29-.35.29-5.46,0-10.93,0-16.39,0-.07,0-.14,0-.26-.02Z"/>
        <path d="M23.45,47.31h16.91c-.28,1.08-.55,2.15-.83,3.21-.06.25-.14.5-.19.75-.04.18-.12.22-.3.22-4.86,0-9.72,0-14.58,0-1.1,0-1.78-.84-1.57-1.94.14-.75.36-1.49.55-2.24Z"/>
        <path d="M23.76,46.11c.19-.72.36-1.4.54-2.08.14-.55.3-1.1.42-1.66.05-.24.15-.31.39-.31,2.07.01,4.15,0,6.22,0h7.99c-.2.79-.39,1.54-.59,2.29-.12.47-.26.94-.36,1.41-.06.25-.16.35-.43.34-1.37-.02-2.74,0-4.1,0h-9.67c-.11,0-.23,0-.4,0Z"/>
        <path d="M103.75,51.45c.07-.3.14-.59.22-.87.69-2.66,1.38-5.31,2.05-7.97.06-.23.14-.32.39-.32,1.2.01,2.41,0,3.61,0,.09,0,.18,0,.31.02-.02.11-.03.19-.05.28-.74,2.88-1.48,5.76-2.23,8.63-.04.14-.05.27-.26.27-1.3-.01-2.59,0-3.89,0-.04,0-.08-.02-.15-.04Z"/>
      </g>
    </g>
  </g>
</svg>