<?xml version="1.0" encoding="utf-8"?>
<!-- Generator: Adobe Illustrator 27.1.1, SVG Export Plug-In . SVG Version: 6.00 Build 0)  -->
<svg version="1.1" id="Layer_1" xmlns="http://www.w3.org/2000/svg" xmlns:xlink="http://www.w3.org/1999/xlink" x="0px" y="0px"
	 viewBox="0 0 120 60" style="enable-background:new 0 0 120 60;" xml:space="preserve">
<style type="text/css">
	.st0{fill:#FFFFFF;}
</style>
<g>
	<g id="Layer_1_00000142860028309272727010000014350367676741409165_">
		<g>
			<path class="st0" d="M71,51.5c-2.1,0-4.2,0-6.3,0c-0.9,0-1.5-0.4-1.6-1.2c0-0.3,0-0.7,0.1-1c0.9-3.5,1.8-6.9,2.7-10.4
				c0.3-1.2,1.6-2.2,2.8-2.2c4.2,0,8.3,0,12.5,0c1.2,0,1.9,0.9,1.6,2.1c-0.9,3.5-1.8,7.1-2.7,10.6c-0.3,1.1-1.4,2.1-2.8,2.1
				C75.2,51.5,73.1,51.5,71,51.5L71,51.5z M77.9,41.2c-0.1,0-0.1,0-0.2,0c-2.7,0-5.3,0-8,0c-0.2,0-0.3,0.1-0.3,0.3
				c-0.3,1.3-0.7,2.6-1,3.9c-0.2,0.6-0.3,1.1-0.4,1.7c0.1,0,0.2,0,0.2,0c2.7,0,5.3,0,8,0c0.2,0,0.3-0.1,0.3-0.2
				c0.2-0.8,0.4-1.6,0.6-2.4C77.3,43.4,77.6,42.3,77.9,41.2L77.9,41.2z"/>
			<path class="st0" d="M14.6,51.5c0.2-0.9,0.4-1.7,0.6-2.5c0.1-0.3,0.1-0.5,0.2-0.8c0.2-1-0.5-1.9-1.6-1.9c-2,0-4.1,0-6.1,0
				c-0.2,0-0.3,0.1-0.3,0.3c-0.4,1.5-0.8,3.1-1.2,4.6c0,0.1-0.1,0.2-0.1,0.3H1.9C2,51,2.1,50.6,2.2,50.2c0.5-2,1-4,1.5-6
				C4,43,5.2,41.9,6.7,41.9c3.4,0,6.9,0,10.3,0c0.3,0,0.4-0.1,0.4-0.3c0-0.3,0.1-0.5,0.2-0.8H4.8c0-0.1,0-0.2,0-0.3
				c0.3-1.2,0.5-2.3,0.8-3.5c0-0.2,0.1-0.3,0.3-0.3c4.9,0,9.8,0,14.6,0c1,0,1.7,0.8,1.5,1.8c-0.2,1-0.4,1.9-0.7,2.9
				c-0.1,0.5-0.3,1-0.5,1.4c-0.1,0.3-0.4,0.5-0.6,0.7c-0.5,0.4-0.5,0.7-0.2,1.3c0.2,0.4,0.3,0.8,0.2,1.3c-0.4,1.7-0.9,3.5-1.3,5.2
				c0,0.1-0.1,0.2-0.2,0.2C17.3,51.5,16,51.5,14.6,51.5L14.6,51.5z"/>
			<path class="st0" d="M57.2,8.5v7.8h-3.4v-1.8c-2.4,1.3-4.8,2.6-7.2,4c2.4,1.3,4.8,2.6,7.2,4v-1.8h3.5v7.8c-0.1,0-0.2-0.1-0.2-0.1
				c-5.1-2.9-10.3-5.7-15.4-8.6c-0.4-0.2-0.8-0.5-0.9-1c-0.1-0.5,0.1-1,0.5-1.3c0.6-0.4,1.2-0.7,1.9-1.1c4.6-2.6,9.2-5.1,13.8-7.7
				C57,8.6,57,8.6,57.2,8.5L57.2,8.5z"/>
			<path class="st0" d="M62.3,14.5v1.8h-3.4V8.5c0.1,0.1,0.2,0.1,0.3,0.1c5.1,2.8,10.1,5.6,15.2,8.5c0.2,0.1,0.4,0.2,0.6,0.4
				c0.7,0.5,0.7,1.6-0.1,2c-0.6,0.4-1.2,0.7-1.8,1c-4.7,2.6-9.3,5.2-13.9,7.8c-0.1,0-0.2,0.1-0.3,0.1v-7.8h3.4v1.8
				c2.4-1.3,4.8-2.6,7.2-4C67.1,17.1,64.7,15.9,62.3,14.5L62.3,14.5z"/>
			<path class="st0" d="M63.6,36.7c-0.1,0.1-0.1,0.2-0.2,0.3c-2.7,4.3-5.3,8.7-8,13c-0.6,1-1.4,1.5-2.6,1.5c-1.1,0-2.2,0-3.2,0
				c-1,0-1.6-0.5-1.7-1.5c-0.4-4.3-0.8-8.7-1.2-13c0-0.1,0-0.1,0-0.2h4.5c0,0.4,0.1,0.8,0.1,1.2c0.3,2.8,0.5,5.7,0.8,8.5
				c0,0.2,0.1,0.4,0.2,0.4c0.2,0,0.4-0.1,0.5-0.2c0.1,0,0.1-0.2,0.2-0.2c1.9-3.2,3.9-6.3,5.8-9.5c0.1-0.2,0.2-0.3,0.5-0.3
				c1.3,0,2.6,0,3.9,0C63.4,36.7,63.4,36.7,63.6,36.7L63.6,36.7z"/>
			<path class="st0" d="M101.1,47.1c-0.2,0.9-0.4,1.7-0.6,2.5c-0.1,0.5-0.3,1.1-0.4,1.6c-0.1,0.2-0.2,0.3-0.4,0.3
				c-3.1,0-6.2,0-9.2,0c-1.7,0-3.4,0-5.1,0c-1.3,0-2-1-1.7-2.2c1.1-4.1,2.1-8.2,3.2-12.4c0-0.1,0.2-0.2,0.2-0.2c1.3,0,2.7,0,4.1,0
				c0,0.1-0.1,0.2-0.1,0.3c-0.7,2.8-1.4,5.6-2.2,8.5c0,0.2-0.1,0.3-0.1,0.5c0,0.5,0.3,1,0.9,1c0.1,0,0.3,0,0.4,0c3.5,0,7.1,0,10.6,0
				L101.1,47.1L101.1,47.1z"/>
			<path class="st0" d="M100.1,41.1c0.1-0.3,0.2-0.6,0.2-0.8c0.3-1.1,0.6-2.2,0.8-3.3c0.1-0.2,0.1-0.3,0.3-0.3c5.4,0,10.9,0,16.4,0
				c0.1,0,0.2,0,0.3,0c-0.2,0.7-0.3,1.3-0.5,2c-0.2,0.7-0.4,1.4-0.5,2.1c-0.1,0.2-0.2,0.3-0.4,0.3c-3.1,0-6.3,0-9.4,0
				c-2.3,0-4.5,0-6.8,0H100.1L100.1,41.1z"/>
			<path class="st0" d="M25.1,40.9c0.3-1.1,0.6-2.2,0.9-3.3c0.1-0.3,0.1-0.7,0.3-0.8c0.2-0.1,0.6,0,0.8,0c5.2,0,10.4,0,15.6,0h0.4
				c-0.2,0.6-0.3,1.2-0.4,1.7c-0.2,0.7-0.4,1.5-0.6,2.2c0,0.2-0.1,0.3-0.3,0.3c-5.5,0-10.9,0-16.4,0C25.3,40.9,25.2,40.9,25.1,40.9
				L25.1,40.9z"/>
			<path class="st0" d="M23.5,47.3h16.9c-0.3,1.1-0.5,2.2-0.8,3.2c-0.1,0.2-0.1,0.5-0.2,0.8c0,0.2-0.1,0.2-0.3,0.2
				c-4.9,0-9.7,0-14.6,0c-1.1,0-1.8-0.8-1.6-1.9C23,48.8,23.3,48.1,23.5,47.3L23.5,47.3z"/>
			<path class="st0" d="M23.8,46.1c0.2-0.7,0.4-1.4,0.5-2.1c0.1-0.5,0.3-1.1,0.4-1.7c0-0.2,0.1-0.3,0.4-0.3c2.1,0,4.1,0,6.2,0h8
				c-0.2,0.8-0.4,1.5-0.6,2.3c-0.1,0.5-0.3,0.9-0.4,1.4c-0.1,0.2-0.2,0.3-0.4,0.3c-1.4,0-2.7,0-4.1,0h-9.7
				C24.1,46.1,23.9,46.1,23.8,46.1L23.8,46.1z"/>
			<path class="st0" d="M103.8,51.5c0.1-0.3,0.1-0.6,0.2-0.9c0.7-2.7,1.4-5.3,2.1-8c0.1-0.2,0.1-0.3,0.4-0.3c1.2,0,2.4,0,3.6,0
				c0.1,0,0.2,0,0.3,0c0,0.1,0,0.2-0.1,0.3c-0.7,2.9-1.5,5.8-2.2,8.6c0,0.1-0.1,0.3-0.3,0.3c-1.3,0-2.6,0-3.9,0
				C103.9,51.5,103.8,51.5,103.8,51.5z"/>
		</g>
	</g>
</g>
</svg>
